<svg width="45" height="44" viewBox="0 0 45 44" fill="none" xmlns="http://www.w3.org/2000/svg">
<g clip-path="url(#clip0_107_94)">
<path d="M33.1579 14.2129H45L22.5 43.8226L33.1579 14.2129Z" fill="#0D47A1"/>
<path d="M0 14.2127L11.8421 0V14.2127H0Z" fill="#84FFFF"/>
<path d="M33.1579 0V14.2127H45L33.1579 0Z" fill="#1976D2"/>
<path d="M11.8421 14.2127L22.5 44L33.1579 14.2127H11.8421ZM11.8421 0H22.5L11.8421 14.2127V0ZM22.5 0L33.1579 14.2127V0H22.5Z" fill="#0091EA"/>
<path d="M33.1579 14.2126H11.8421L22.5 0L33.1579 14.2126ZM33.1579 14.2126L39.0789 11.8439L45 14.2126L39.0789 16.5814L33.1579 14.2126Z" fill="#00B0FF"/>
<path d="M11.8421 14.2125H0L22.5 43.9999L11.8421 14.2125ZM11.8421 14.2125L22.5 11.8438L33.1579 14.2125L22.5 16.5813L11.8421 14.2125Z" fill="#00E5FF"/>
<path d="M0 14.2125L5.92105 11.8438L11.8421 14.2125L5.92105 16.5813L0 14.2125Z" fill="#E0F7FA"/>
</g>
<defs>
<clipPath id="clip0_107_94">
<rect width="45" height="44" fill="white"/>
</clipPath>
</defs>
</svg>
