<svg width="12" height="11" viewBox="0 0 12 11" fill="none" xmlns="http://www.w3.org/2000/svg">
<path d="M0.958171 5.30433L3.37759 6.24715L4.31405 9.39178C4.37399 9.59309 4.60985 9.66754 4.76635 9.53389L6.11501 8.386C6.25635 8.26564 6.45775 8.25973 6.60541 8.37166L9.0379 10.2156C9.20533 10.3427 9.44263 10.2469 9.4846 10.0356L11.2665 1.08612C11.3124 0.8553 11.0952 0.662761 10.8847 0.747788L0.955371 4.74735C0.710306 4.84596 0.712406 5.2082 0.958171 5.30433ZM4.16312 5.74531L8.89157 2.70454C8.9765 2.65007 9.06397 2.77004 8.99093 2.84073L5.08865 6.62819C4.95145 6.76146 4.86299 6.93994 4.83792 7.13362L4.70505 8.1622C4.68735 8.29951 4.50269 8.31308 4.46632 8.1802L3.95509 6.30455C3.89659 6.09064 3.98189 5.86207 4.16312 5.74531Z" fill="#E35BE1"/>
<path d="M0.958171 5.30433L3.37759 6.24715L4.31405 9.39178C4.37399 9.59309 4.60985 9.66754 4.76635 9.53389L6.11501 8.386C6.25635 8.26564 6.45775 8.25973 6.60541 8.37166L9.0379 10.2156C9.20533 10.3427 9.44263 10.2469 9.4846 10.0356L11.2665 1.08612C11.3124 0.8553 11.0952 0.662761 10.8847 0.747788L0.955371 4.74735C0.710306 4.84596 0.712406 5.2082 0.958171 5.30433ZM4.16312 5.74531L8.89157 2.70454C8.9765 2.65007 9.06397 2.77004 8.99093 2.84073L5.08865 6.62819C4.95145 6.76146 4.86299 6.93994 4.83792 7.13362L4.70505 8.1622C4.68735 8.29951 4.50269 8.31308 4.46632 8.1802L3.95509 6.30455C3.89659 6.09064 3.98189 5.86207 4.16312 5.74531Z" fill="url(#paint0_linear_107_251)"/>
<defs>
<linearGradient id="paint0_linear_107_251" x1="13.3843" y1="1.42917" x2="0.520793" y2="1.81218" gradientUnits="userSpaceOnUse">
<stop stop-color="#F291FF"/>
<stop offset="0.807292" stop-color="#A9B6FF"/>
</linearGradient>
</defs>
</svg>
